<svg version="1.0" xmlns="http://www.w3.org/2000/svg" width="333.333" height="333.333" viewBox="0 0 250 250"><path d="M111.8.5c-.1.1-2.3.5-4.8.8C95.6 2.7 79 8 68.1 13.7 33.4 32.2 10.7 62.2 2.3 101c-1.7 8-2.4 33.4-1.1 42.5 1.3 8.9 6.1 24.8 10 33.2 12 26.2 32.6 47.3 58.6 60.3 19 9.4 35.6 13 58.2 12.5 20.2-.4 35-3.9 51.6-12.2 35.1-17.3 59.4-48.5 67.9-87.3 2.5-11.3 2.8-34.2.5-46.5-1-5.5-2.2-11.1-2.8-12.5-.5-1.4-1-2.7-1-3 0-.3-.4-1.4-.7-2.5-6.2-18.7-15.6-33.8-30.4-48.5C194.7 18.7 175 7.9 149.8 2.4 143.6 1 113-.5 111.8.5z"/></svg>