<?xml version="1.0" standalone="no"?>
<!DOCTYPE svg PUBLIC "-//W3C//DTD SVG 20010904//EN"
 "http://www.w3.org/TR/2001/REC-SVG-20010904/DTD/svg10.dtd">
<svg version="1.0" xmlns="http://www.w3.org/2000/svg"
 width="250.000000pt" height="250.000000pt" viewBox="0 0 250.000000 250.000000"
 preserveAspectRatio="xMidYMid meet">
<metadata>
Created by potrace 1.14, written by Peter Selinger 2001-2017
</metadata>
<g transform="translate(0.000000,250.000000) scale(0.100000,-0.100000)"
fill="#000000" stroke="none">
<path d="M1118 2495 c-1 -1 -23 -5 -48 -8 -114 -14 -280 -67 -389 -124 -347
-185 -574 -485 -658 -873 -17 -80 -24 -334 -11 -425 13 -89 61 -248 100 -332
120 -262 326 -473 586 -603 190 -94 356 -130 582 -125 202 4 350 39 516 122
351 173 594 485 679 873 25 113 28 342 5 465 -10 55 -22 111 -28 125 -5 14
-10 27 -10 30 0 3 -4 14 -7 25 -62 187 -156 338 -304 485 -184 183 -381 291
-633 346 -62 14 -368 29 -380 19z"/>
</g>
</svg>
